<svg width="8" height="5" viewBox="0 0 8 5" fill="none" xmlns="http://www.w3.org/2000/svg">
<path d="M6.57509 5.72205e-06C7.02509 5.72205e-06 7.33776 0.204339 7.51309 0.613006C7.68842 1.02167 7.61743 1.38401 7.30009 1.70001L4.70009 4.30001C4.60009 4.40001 4.49176 4.47501 4.37509 4.52501C4.25842 4.57501 4.13342 4.60001 4.00009 4.60001C3.86676 4.60001 3.74176 4.57501 3.62509 4.52501C3.50842 4.47501 3.40009 4.40001 3.30009 4.30001L0.700091 1.70001C0.383425 1.38334 0.312758 1.02067 0.488091 0.612006C0.663425 0.20334 0.975759 -0.000660896 1.42509 5.72205e-06L6.57509 5.72205e-06Z" fill="#038477"/>
</svg>
