<svg width="320" height="322" viewBox="0 0 320 322" fill="none" xmlns="http://www.w3.org/2000/svg">
<g clip-path="url(#clip0_919_459)">
<mask id="mask0_919_459" style="mask-type:luminance" maskUnits="userSpaceOnUse" x="0" y="0" width="320" height="322">
<path d="M320 0H0V322H320V0Z" fill="white"/>
</mask>
<g mask="url(#mask0_919_459)">
<path d="M83.1755 136.691H251.498C253.847 136.691 255.751 138.608 255.751 140.971V251.554C255.751 253.918 253.847 255.834 251.498 255.834H83.1755C80.8267 255.834 78.9224 253.918 78.9224 251.554V140.971C78.9224 138.608 80.8267 136.691 83.1755 136.691Z" fill="#01414D"/>
<path d="M85.1287 141.697H249.546V250.834H85.1287V141.697Z" fill="#BEDEFE"/>
<path d="M282.149 261.037H52.6732C50.5539 261.037 48.8416 259.887 48.8416 258.47C48.8416 257.053 50.5539 255.904 52.6732 255.904H282.149C284.263 255.904 285.98 257.053 285.98 258.47C285.98 259.887 284.259 261.037 282.149 261.037Z" fill="#646464"/>
<path d="M65.0012 244.397H269.669V250.074C269.669 253.255 267.106 255.834 263.945 255.834H70.726C67.5644 255.834 65.0012 253.255 65.0012 250.074V244.397Z" fill="#01414D"/>
<path d="M134.046 244.397H200.626V247.591C200.626 249.382 199.183 250.834 197.403 250.834H137.265C135.484 250.834 134.042 249.382 134.042 247.591V244.397H134.046Z" fill="#01414D"/>
<path d="M175.831 152.561H241.876V241.721H175.831V152.561Z" fill="#D1E6F6"/>
<path d="M196.698 83.257L168.167 126.028L135.737 103.862L163.711 60.3919L196.698 83.257Z" fill="#01414D"/>
<path d="M196.528 81.1508L167.996 123.923L136.909 102.676L165.279 57.9851L196.528 81.1508Z" fill="#FEF7E3"/>
<path d="M201.715 79.4333L173.184 122.199L140.748 100.033L168.728 56.563L201.715 79.4333Z" fill="#01414D"/>
<path d="M140.765 100.046C140.765 100.046 136.698 103.176 135.75 103.871C148.392 82.3367 151.496 77.2134 165.055 56.9462C165.055 56.9462 165.912 54.5924 168.754 56.566L140.765 100.046Z" fill="#01414D"/>
<path d="M161.878 73.0968C161.878 73.0968 173.967 81.5172 181.698 86.9017" stroke="#FEF7E3" stroke-width="1.40965" stroke-miterlimit="10"/>
<path d="M165.609 68.4732C165.609 68.4732 173.888 74.2399 179.222 77.9552" stroke="#FEF7E3" stroke-width="1.40965" stroke-miterlimit="10"/>
<path d="M58.8359 82.7689L51.626 93.5628" stroke="#646464" stroke-width="2.576" stroke-linecap="round" stroke-linejoin="round"/>
<path d="M51.4867 90.665L54.1751 92.4821C54.5995 92.7694 54.7107 93.3482 54.4234 93.7755L50.1693 100.099C49.8817 100.526 49.3048 100.639 48.8801 100.352L46.1919 98.5347C45.7672 98.2478 45.656 97.6687 45.9436 97.2416L50.1978 90.9188C50.4851 90.4918 51.0623 90.3781 51.4867 90.665Z" fill="#646464"/>
<path d="M109.803 158.934H142.226C144.115 158.934 145.647 160.476 145.647 162.377V180.723C145.647 182.624 144.115 184.165 142.226 184.165H109.803C107.914 184.165 106.382 182.624 106.382 180.723V162.377C106.382 160.476 107.914 158.934 109.803 158.934Z" fill="#FEF7E3"/>
<path d="M132.617 170.983L122.881 165.963C122.721 165.879 122.523 165.941 122.439 166.102C122.415 166.15 122.402 166.203 122.402 166.257V176.302C122.399 176.483 122.543 176.633 122.724 176.637C122.779 176.637 122.833 176.625 122.881 176.599L132.617 171.575C132.779 171.49 132.843 171.29 132.759 171.126C132.728 171.065 132.678 171.015 132.617 170.983Z" fill="#646464"/>
<path d="M189.125 163.477H198.429C199.661 163.477 200.66 164.482 200.66 165.722V170.077C200.66 171.317 199.661 172.322 198.429 172.322H189.125C187.893 172.322 186.895 171.317 186.895 170.077V165.722C186.895 164.482 187.893 163.477 189.125 163.477Z" fill="#FEF7E3"/>
<path d="M194.583 167.719L194.482 167.667C194.478 167.665 194.474 167.667 194.472 167.67C194.472 167.671 194.472 167.672 194.472 167.673V167.777C194.472 167.781 194.475 167.784 194.479 167.784C194.48 167.784 194.481 167.784 194.482 167.783L194.583 167.731C194.586 167.73 194.588 167.725 194.586 167.722C194.585 167.721 194.584 167.719 194.583 167.719Z" fill="#646464"/>
<path d="M193.327 193.108H193.524C193.55 193.108 193.571 193.129 193.571 193.156V193.248C193.571 193.274 193.55 193.295 193.524 193.295H193.327C193.301 193.295 193.28 193.274 193.28 193.248V193.156C193.28 193.129 193.301 193.108 193.327 193.108Z" fill="#FEF7E3"/>
<path d="M209.126 164.758H239.064" stroke="#FEF7E3" stroke-width="1.06138" stroke-linecap="round" stroke-linejoin="round"/>
<path d="M209.126 168.416H229.749" stroke="#FEF7E3" stroke-width="0.731149" stroke-linecap="round" stroke-linejoin="round"/>
<path d="M209.126 172.321H210.645" stroke="#FEF7E3" stroke-width="0.0538598" stroke-linecap="round" stroke-linejoin="round"/>
<path d="M168.616 227.494H82.1152C83.2173 229.629 83.7927 231.999 83.7927 234.405C83.7927 236.811 83.2173 239.182 82.1152 241.316H168.616C172.41 241.316 175.484 238.222 175.484 234.405C175.484 230.588 172.41 227.494 168.616 227.494Z" fill="#FEF7E3"/>
<path d="M81.2228 241.346H168.616C172.41 241.346 175.484 238.252 175.484 234.436C175.484 230.619 172.41 227.524 168.616 227.524H81.1636C80.9985 227.526 80.8443 227.445 80.7518 227.307L79.7163 225.782C79.5505 225.566 79.5899 225.256 79.8043 225.09C79.898 225.016 80.0151 224.98 80.1335 224.987H170.216C175.458 224.987 179.709 229.264 179.709 234.539C179.709 239.814 175.458 244.091 170.216 244.091H80.1038C79.8334 244.103 79.6043 243.891 79.5927 243.619C79.5879 243.507 79.6212 243.397 79.6871 243.306L80.8007 241.588C80.8891 241.438 81.0494 241.346 81.2228 241.346Z" fill="#01414D"/>
<path d="M85.58 222.361H172.081C170.98 220.226 170.406 217.856 170.408 215.45C170.406 213.045 170.98 210.675 172.081 208.54H85.58C81.787 208.54 78.7122 211.634 78.7122 215.45C78.7122 219.267 81.787 222.361 85.58 222.361Z" fill="#FEF7E3"/>
<path d="M172.974 208.504H85.5799C81.7869 208.504 78.712 211.598 78.712 215.415C78.712 219.232 81.7869 222.326 85.5799 222.326H173.033C173.197 222.324 173.352 222.406 173.445 222.543L174.48 224.059C174.643 224.276 174.599 224.586 174.383 224.75C174.291 224.82 174.178 224.854 174.063 224.849H83.9808C78.7383 224.849 74.488 220.572 74.488 215.297C74.488 210.021 78.7383 205.745 83.9808 205.745H174.092C174.363 205.73 174.594 205.939 174.608 206.212C174.614 206.325 174.581 206.438 174.514 206.529L173.391 208.282C173.299 208.423 173.141 208.507 172.974 208.504Z" fill="#F7C348"/>
<path d="M169.681 191.108H77.2388C78.0676 193.03 78.4919 195.104 78.4848 197.2C78.4922 199.295 78.0679 201.369 77.2388 203.292H169.681C172.506 203.292 174.802 200.566 174.802 197.2C174.802 193.838 172.506 191.108 169.681 191.108Z" fill="#FEF7E3"/>
<path d="M76.5612 203.292H169.681C172.506 203.292 174.802 200.566 174.802 197.2C174.802 193.839 172.506 191.109 169.681 191.109H76.5218C76.3913 191.108 76.2719 191.034 76.213 190.916L75.4428 189.588C75.3045 189.379 75.3609 189.097 75.5679 188.958C75.6233 188.921 75.6863 188.897 75.7519 188.887H170.867C174.792 188.887 177.932 192.654 177.932 197.279C177.932 201.919 174.772 205.671 170.867 205.671H75.7321C75.4857 205.633 75.3164 205.402 75.3538 205.153C75.3631 205.092 75.3852 205.032 75.4181 204.979L76.2521 203.469C76.318 203.36 76.4345 203.293 76.5612 203.292Z" fill="#4A90E2"/>
<path d="M29.2279 60.9365L32.6257 64.5416C40.6504 73.0628 47.046 82.9952 51.4916 93.8423L51.9776 95.0282C51.9776 95.0282 61.2509 96.3443 62.9999 87.9279C55.3552 78.3575 48.9761 67.8323 44.0232 56.6154L42.531 52.561L29.2279 60.9365Z" fill="#01414D"/>
<path d="M42.5415 52.5457C42.9643 53.2294 40.3368 55.6515 36.6636 57.9553C32.9906 60.2591 29.6556 61.5974 29.2327 60.9138C28.8099 60.2298 31.4536 57.7789 35.1268 55.4755C38.8001 53.1717 42.1138 51.8618 42.5415 52.5457Z" fill="#27C392"/>
<path d="M42.5546 52.5696C42.5546 52.5696 35.1446 58.2409 32.1873 58.71L33.0273 59.993C34.2788 59.3852 35.4956 58.7079 36.6722 57.9644C40.2905 55.6776 42.9019 53.2842 42.5546 52.5696Z" fill="#27C392"/>
<path d="M51.1495 70.6151C51.0971 71.6596 50.4898 76.1335 42.9359 77.5991C43.3925 78.2947 43.8486 79.0001 44.3047 79.7053C49.0856 78.5505 51.3251 76.2312 52.3737 74.4283C52.5357 74.1402 52.7365 73.7601 52.8744 73.4656C52.2855 72.5297 51.7106 71.5792 51.1495 70.6151Z" fill="#27C392"/>
<path d="M43.6844 76.3375L32.7512 75.381L35.2376 77.7267L33.5474 80.4729L44.045 78.356L43.6844 76.3375Z" fill="#27C392"/>
<path d="M44.5529 78.949L40.318 85.5674L43.1065 84.6597L44.0573 86.8779L46.2456 79.8025L44.5529 78.949Z" fill="#27C392"/>
<path d="M45.9577 80.8504C43.9703 80.9471 42.2798 79.4059 42.1811 77.4084C42.0825 75.4106 43.6135 73.7129 45.6006 73.6161C47.588 73.5197 49.2792 75.061 49.3778 77.0585C49.3792 77.094 49.3807 77.1295 49.3815 77.165C49.4501 79.1338 47.9177 80.7838 45.959 80.8505L45.9577 80.8504Z" fill="#27C392"/>
<path d="M218.114 115.445C219.566 115.445 220.744 116.63 220.744 118.091C220.744 119.552 219.566 120.737 218.114 120.737C216.662 120.737 215.485 119.552 215.485 118.091C215.485 116.63 216.662 115.445 218.114 115.445Z" fill="#01414D"/>
<path d="M100.316 75.6353L105.864 81.2185L100.316 86.8011L94.7671 81.2185L100.316 75.6353Z" fill="#01414D"/>
<path d="M286.971 173.769C286.233 172.803 284.853 172.622 283.889 173.365L283.286 173.828L282.822 173.223C282.084 172.257 280.704 172.076 279.74 172.819C278.776 173.562 278.591 174.947 279.326 175.916L279.79 176.521L282.463 180.026L285.959 177.334L286.561 176.866C287.523 176.121 287.706 174.737 286.971 173.769Z" fill="#4A90E2"/>
<path d="M229.034 78.068C227.948 77.5221 226.629 77.9606 226.083 79.0479L225.749 79.7174L225.069 79.3741C223.983 78.8257 222.662 79.2641 222.118 80.3537L222.118 80.3543C221.573 81.4401 222.008 82.766 223.091 83.3158C223.094 83.3174 223.097 83.3186 223.1 83.3201L223.776 83.6623L227.712 85.654L229.682 81.7037L230.021 81.0252C230.556 79.9359 230.115 78.6162 229.034 78.068Z" fill="#F7C348"/>
<path d="M37.3945 153.609C38.5237 153.609 39.4396 154.531 39.4396 155.667C39.4396 156.804 38.5237 157.725 37.3945 157.725C36.2649 157.725 35.3486 156.804 35.3486 155.667C35.3486 154.531 36.2649 153.609 37.3945 153.609Z" fill="#F7C348"/>
<path d="M251.439 107.34L258.755 105.808L262.462 123.765L255.146 125.302C250.192 126.264 245.408 123.009 244.459 118.034C243.53 113.164 246.622 108.427 251.439 107.34Z" fill="#01414D"/>
<path d="M278.702 102.372L280.246 102.043C281.487 101.787 282.7 102.585 282.961 103.829L285.424 115.865C285.678 117.111 284.882 118.33 283.642 118.594L282.098 118.917L278.702 102.372Z" fill="#27C392"/>
<path d="M260.984 100.847L272.941 90.1242C274.445 88.77 276.015 89.2884 276.424 91.2723L284.421 129.996C284.83 131.98 283.596 133.086 281.683 132.456L266.474 127.432L260.984 100.847Z" fill="#01414D"/>
<path d="M51.5628 198.282L42.114 197.593C41.8377 197.569 41.5952 197.775 41.5716 198.054C41.5646 198.137 41.5786 198.222 41.6121 198.299L44.9849 206.303C45.0926 206.563 45.3894 206.686 45.6481 206.577C45.7238 206.546 45.7903 206.496 45.8428 206.433L51.9134 199.113C52.0929 198.901 52.0668 198.582 51.8556 198.402C51.7733 198.331 51.6705 198.29 51.5628 198.282Z" fill="#01414D"/>
<path d="M92.8784 123.106C91.9707 124.461 90.3594 125.161 88.7577 124.896C75.4864 122.703 63.8392 114.827 56.8405 103.313C55.992 101.926 56.0336 100.165 56.9479 98.813L69.798 79.7141L105.729 104.012L92.8784 123.106Z" fill="#646464"/>
<path d="M111.338 112.447L92.7359 83.3365C92.5312 83.0185 92.2051 82.7994 91.8337 82.7306L57.9449 76.3477C57.2024 76.2046 56.4823 76.6932 56.3372 77.4394C56.2648 77.8107 56.3478 78.1949 56.567 78.5019L76.1321 106.217C76.3235 106.491 76.6082 106.685 76.9326 106.763L109.857 114.536C110.595 114.711 111.338 114.251 111.515 113.509C111.602 113.145 111.538 112.762 111.338 112.447Z" fill="#01414D"/>
<path d="M59.2542 82.2702L86.0039 87.5033" stroke="#646464" stroke-width="2.576" stroke-linecap="round" stroke-linejoin="round"/>
</g>
</g>
<defs>
<clipPath id="clip0_919_459">
<rect width="320" height="322" fill="white"/>
</clipPath>
</defs>
</svg>
