<svg width="320" height="322" viewBox="0 0 320 322" fill="none" xmlns="http://www.w3.org/2000/svg">
<g clip-path="url(#clip0_877_1720)">
<mask id="mask0_877_1720" style="mask-type:luminance" maskUnits="userSpaceOnUse" x="0" y="0" width="320" height="322">
<path d="M320 0H0V322H320V0Z" fill="white"/>
</mask>
<g mask="url(#mask0_877_1720)">
<path d="M265.75 124.715H246.951C246.088 124.715 245.382 124.005 245.382 123.136V104.879C245.382 104.01 246.088 103.3 246.951 103.3H265.75C266.613 103.3 267.319 104.01 267.319 104.879V123.136C267.319 124.005 266.613 124.715 265.75 124.715Z" fill="#F0C19A"/>
<path d="M264.936 123.788H247.766C246.978 123.788 246.333 123.139 246.333 122.346V105.669C246.333 104.876 246.978 104.227 247.766 104.227H264.936C265.724 104.227 266.369 104.876 266.369 105.669V122.346C266.369 123.139 265.724 123.788 264.936 123.788Z" fill="#FFEDDB"/>
<path d="M255.896 106.182C255.896 105.929 256.099 105.725 256.351 105.725C256.602 105.725 256.805 105.929 256.805 106.182C256.805 106.435 256.602 106.639 256.351 106.639C256.099 106.639 255.896 106.435 255.896 106.182Z" fill="#F0C19A"/>
<path d="M259.563 106.829C259.684 106.608 259.961 106.528 260.181 106.651C260.4 106.773 260.479 107.052 260.358 107.273C260.236 107.493 259.959 107.573 259.739 107.45C259.52 107.327 259.441 107.049 259.563 106.829Z" fill="#F0C19A"/>
<path d="M262.704 109.34C262.915 109.203 263.196 109.264 263.332 109.476C263.469 109.688 263.407 109.971 263.197 110.108C262.986 110.245 262.705 110.184 262.569 109.972C262.432 109.76 262.494 109.477 262.704 109.34Z" fill="#F0C19A"/>
<path d="M264.261 113.227C264.512 113.227 264.715 113.431 264.715 113.684C264.715 113.937 264.512 114.141 264.261 114.141C264.009 114.141 263.806 113.937 263.806 113.684C263.806 113.431 264.009 113.227 264.261 113.227Z" fill="#F0C19A"/>
<path d="M263.466 117.738C263.643 117.916 263.643 118.205 263.466 118.384C263.288 118.563 263.001 118.563 262.823 118.384C262.646 118.205 262.646 117.916 262.823 117.738C263.001 117.559 263.288 117.559 263.466 117.738Z" fill="#F0C19A"/>
<path d="M260.613 120.617C260.79 120.795 260.79 121.085 260.613 121.263C260.435 121.442 260.148 121.442 259.97 121.263C259.793 121.085 259.793 120.795 259.97 120.617C260.148 120.438 260.435 120.438 260.613 120.617Z" fill="#F0C19A"/>
<path d="M255.896 122.1C255.896 121.847 256.099 121.643 256.351 121.643C256.602 121.643 256.805 121.847 256.805 122.1C256.805 122.353 256.602 122.557 256.351 122.557C256.099 122.557 255.896 122.353 255.896 122.1Z" fill="#F0C19A"/>
<path d="M253.124 106.829C253.002 106.608 252.725 106.528 252.506 106.651C252.287 106.773 252.208 107.052 252.33 107.273C252.452 107.493 252.728 107.573 252.947 107.45C253.167 107.327 253.246 107.049 253.124 106.829Z" fill="#F0C19A"/>
<path d="M249.982 109.34C249.772 109.203 249.491 109.264 249.354 109.476C249.218 109.688 249.279 109.971 249.49 110.108C249.701 110.245 249.982 110.184 250.118 109.972C250.254 109.76 250.193 109.477 249.982 109.34Z" fill="#F0C19A"/>
<path d="M248.427 113.227C248.176 113.227 247.972 113.431 247.972 113.684C247.972 113.937 248.176 114.141 248.427 114.141C248.678 114.141 248.881 113.937 248.881 113.684C248.881 113.431 248.678 113.227 248.427 113.227Z" fill="#F0C19A"/>
<path d="M249.221 117.738C249.044 117.916 249.044 118.205 249.221 118.384C249.399 118.563 249.686 118.563 249.864 118.384C250.041 118.205 250.041 117.916 249.864 117.738C249.686 117.559 249.399 117.559 249.221 117.738Z" fill="#F0C19A"/>
<path d="M252.074 120.617C251.897 120.795 251.897 121.085 252.074 121.263C252.252 121.442 252.539 121.442 252.717 121.263C252.894 121.085 252.894 120.795 252.717 120.617C252.539 120.438 252.252 120.438 252.074 120.617Z" fill="#F0C19A"/>
<path d="M256.228 113.684C256.228 113.431 256.431 113.227 256.682 113.227C256.934 113.227 257.137 113.431 257.137 113.684C257.137 113.937 256.934 114.141 256.682 114.141C256.431 114.141 256.228 113.937 256.228 113.684Z" fill="#F0C19A"/>
<path d="M256.745 113.684H256.621V107.972H256.745V113.684Z" fill="#F0C19A"/>
<path d="M256.74 113.823L256.51 113.529L259.52 111.152L259.749 111.446L256.74 113.823Z" fill="#F0C19A"/>
<path d="M225.08 178.226H91.3049V88.3123H225.08V178.226Z" fill="#6A9F98"/>
<path d="M227.531 180.19H88.8538V86.3476H227.531V180.19ZM91.305 178.226H225.08V88.3123H91.305V178.226Z" fill="#F0C19A"/>
<path d="M228.425 180.115H88.1711C87.4355 180.115 86.833 179.509 86.833 178.768V178.692C86.833 177.952 87.4355 177.345 88.1711 177.345H228.425C229.161 177.345 229.763 177.952 229.763 178.692V178.768C229.763 179.509 229.161 180.115 228.425 180.115Z" fill="#DB9B74"/>
<path d="M198.527 177.346H194.448C193.961 177.346 193.562 176.945 193.562 176.454V176.404C193.562 175.913 193.961 175.512 194.448 175.512H198.527C199.014 175.512 199.412 175.913 199.412 176.404V176.454C199.412 176.945 199.014 177.346 198.527 177.346Z" fill="white"/>
<path d="M171.674 177.346H169.634C169.263 177.346 168.959 177.04 168.959 176.667V176.191C168.959 175.818 169.263 175.512 169.634 175.512H171.674C172.044 175.512 172.348 175.818 172.348 176.191V176.667C172.348 177.04 172.044 177.346 171.674 177.346Z" fill="white"/>
<path d="M167.071 177.346H162.942C162.454 177.346 162.056 176.945 162.056 176.454V176.404C162.056 175.913 162.454 175.512 162.942 175.512H167.071C167.558 175.512 167.956 175.913 167.956 176.404V176.454C167.956 176.945 167.558 177.346 167.071 177.346Z" fill="white"/>
<path d="M189.03 97.6264H189.731L191.624 101.988H190.825L190.389 100.942H188.354L187.911 101.988H187.137L189.03 97.6264ZM190.112 100.268L189.368 98.5358L188.63 100.268H190.112Z" fill="white"/>
<path d="M196.142 97.6572H198.073C198.565 97.6572 198.952 97.7937 199.198 98.0408C199.389 98.2326 199.487 98.4679 199.487 98.771C199.487 99.2905 199.192 99.5684 198.872 99.7357C199.376 99.9087 199.726 100.2 199.726 100.8C199.726 101.573 199.093 101.988 198.134 101.988H196.142V97.6572ZM197.919 99.4823C198.405 99.4823 198.73 99.2905 198.73 98.8823C198.73 98.5421 198.46 98.332 197.974 98.332H196.886V99.4823H197.919ZM198.14 101.314C198.657 101.314 198.97 101.109 198.97 100.707C198.97 100.343 198.681 100.126 198.085 100.126H196.886V101.314H198.14Z" fill="white"/>
<path d="M204.17 99.8225C204.17 98.5917 205.087 97.583 206.39 97.583C207.183 97.583 207.662 97.8622 208.074 98.2578L207.589 98.8207C207.244 98.4993 206.875 98.2823 206.384 98.2823C205.56 98.2823 204.964 98.9628 204.964 99.8225C204.964 100.67 205.56 101.363 206.384 101.363C206.912 101.363 207.25 101.146 207.619 100.8L208.105 101.295C207.656 101.765 207.164 102.062 206.359 102.062C205.105 102.062 204.17 101.078 204.17 99.8225Z" fill="white"/>
<path d="M183.642 107.378H185.246C186.599 107.378 187.533 108.311 187.533 109.542C187.533 110.761 186.599 111.708 185.246 111.708H183.642V107.378ZM185.246 111.015C186.15 111.015 186.74 110.402 186.74 109.542C186.74 108.694 186.15 108.07 185.246 108.07H184.398V111.015H185.246Z" fill="white"/>
<path d="M192.23 107.378H195.42V108.058H192.986V109.184H195.144V109.864H192.986V111.027H195.451V111.708H192.23V107.378Z" fill="white"/>
<path d="M200.129 107.378H203.332V108.07H200.885V109.252H203.055V109.945H200.885V111.708H200.129V107.378Z" fill="white"/>
<path d="M207.752 109.542C207.752 108.33 208.674 107.303 209.971 107.303C210.721 107.303 211.182 107.513 211.625 107.891L211.145 108.466C210.813 108.182 210.487 108.002 209.94 108.002C209.147 108.002 208.545 108.701 208.545 109.542C208.545 110.433 209.129 111.089 210.008 111.089C210.414 111.089 210.782 110.959 211.047 110.761V109.951H209.946V109.289H211.778V111.108C211.354 111.472 210.745 111.782 209.983 111.782C208.637 111.782 207.752 110.816 207.752 109.542Z" fill="white"/>
<path d="M181.481 117.097H182.237V118.897H184.291V117.097H185.047V121.427H184.291V119.603H182.237V121.427H181.481V117.097Z" fill="white"/>
<path d="M189.977 117.097H190.733V121.427H189.977V117.097Z" fill="white"/>
<path d="M195.239 120.79L195.737 120.277C195.989 120.598 196.241 120.784 196.604 120.784C197.009 120.784 197.286 120.512 197.286 119.937V117.097H198.061V119.955C198.061 120.468 197.913 120.853 197.661 121.106C197.409 121.359 197.046 121.49 196.616 121.49C195.952 121.49 195.521 121.18 195.239 120.79Z" fill="white"/>
<path d="M202.88 117.097H203.636V119.275L205.683 117.097H206.612L204.822 118.959L206.691 121.427H205.776L204.306 119.479L203.636 120.172V121.427H202.88V117.097Z" fill="white"/>
<path d="M211.117 117.097H211.874V120.735H214.136V121.427H211.117V117.097Z" fill="white"/>
<path d="M182.769 126.818H183.574L184.884 128.865L186.193 126.818H186.999V131.148H186.242V128.042L184.884 130.084H184.859L183.513 128.055V131.148H182.769V126.818Z" fill="white"/>
<path d="M191.885 126.818H192.586L194.892 129.811V126.818H195.635V131.148H195.002L192.629 128.067V131.148H191.885V126.818Z" fill="white"/>
<path d="M200.332 128.982C200.332 127.764 201.266 126.743 202.588 126.743C203.91 126.743 204.832 127.752 204.832 128.982C204.832 130.201 203.897 131.222 202.576 131.222C201.254 131.222 200.332 130.213 200.332 128.982ZM204.039 128.982C204.039 128.141 203.43 127.442 202.576 127.442C201.721 127.442 201.125 128.129 201.125 128.982C201.125 129.824 201.734 130.523 202.588 130.523C203.442 130.523 204.039 129.836 204.039 128.982Z" fill="white"/>
<path d="M209.528 126.818H211.225C212.227 126.818 212.861 127.393 212.861 128.277C212.861 129.248 212.086 129.756 211.139 129.756H210.284V131.148H209.528V126.818ZM211.164 129.069C211.736 129.069 212.092 128.748 212.092 128.284C212.092 127.776 211.729 127.51 211.164 127.51H210.284V129.069H211.164Z" fill="white"/>
<path d="M187.1 140.534C186.738 140.793 186.295 140.942 185.791 140.942C184.469 140.942 183.547 139.934 183.547 138.703C183.547 137.484 184.481 136.463 185.803 136.463C187.124 136.463 188.047 137.472 188.047 138.703C188.047 139.191 187.893 139.655 187.61 140.032L188.102 140.453L187.616 140.998L187.1 140.534ZM186.541 140.032L185.803 139.401L186.288 138.845L187.033 139.525C187.18 139.296 187.254 139.018 187.254 138.703C187.254 137.861 186.645 137.162 185.791 137.162C184.936 137.162 184.339 137.849 184.339 138.703C184.339 139.544 184.948 140.243 185.803 140.243C186.085 140.243 186.338 140.162 186.541 140.032Z" fill="white"/>
<path d="M192.743 136.537H194.661C195.669 136.537 196.259 137.081 196.259 137.917C196.259 138.628 195.835 139.056 195.232 139.229L196.394 140.867H195.503L194.434 139.358H193.499V140.867H192.743V136.537ZM194.605 138.684C195.147 138.684 195.491 138.399 195.491 137.947C195.491 137.483 195.159 137.231 194.599 137.231H193.499V138.684H194.605Z" fill="white"/>
<path d="M200.679 140.237L201.134 139.692C201.546 140.05 201.958 140.255 202.493 140.255C202.96 140.255 203.255 140.039 203.255 139.698C203.255 139.389 203.083 139.222 202.284 139.03C201.367 138.814 200.851 138.541 200.851 137.731C200.851 136.989 201.466 136.476 202.32 136.476C202.947 136.476 203.445 136.667 203.882 137.02L203.476 137.595C203.089 137.305 202.702 137.15 202.308 137.15C201.865 137.15 201.607 137.379 201.607 137.676C201.607 138.01 201.804 138.158 202.628 138.356C203.538 138.579 204.011 138.907 204.011 139.637C204.011 140.447 203.378 140.929 202.474 140.929C201.817 140.929 201.195 140.701 200.679 140.237Z" fill="white"/>
<path d="M209.74 137.242H208.375V136.537H211.867V137.242H210.502V140.867H209.74V137.242Z" fill="white"/>
<path d="M186.221 148.739V146.341H187.006V148.709C187.006 149.483 187.434 149.899 188.136 149.899C188.831 149.899 189.259 149.507 189.259 148.739V146.341H190.044V148.703C190.044 149.947 189.291 150.572 188.123 150.572C186.961 150.572 186.221 149.947 186.221 148.739Z" fill="white"/>
<path d="M194.212 146.475H195.131L196.559 149.471L197.978 146.475H198.878L196.91 150.401H196.18L194.212 146.475Z" fill="white"/>
<path d="M202.932 146.203H203.729L204.73 149.493L205.761 146.191H206.385L207.416 149.493L208.418 146.203H209.191L207.728 150.673H207.092L206.061 147.484L205.03 150.673H204.395L202.932 146.203Z" fill="white"/>
<path d="M189.135 158.099L187.869 155.632H188.619L189.517 157.433L190.421 155.632H191.149L189.889 158.085L191.201 160.654H190.452L189.502 158.752L188.546 160.654H187.818L189.135 158.099Z" fill="white"/>
<path d="M197.435 158.676L196.106 155.618H196.8L197.736 157.854L198.683 155.618H199.357L198.028 158.655V160.667H197.435V158.676Z" fill="white"/>
<path d="M204.961 159.387L206.276 156.984H205.003V156.46H206.786V156.898L205.471 159.301H206.786V159.825H204.961V159.387Z" fill="white"/>
<path d="M257.295 256.448H257.352C257.687 256.448 257.955 256.171 257.947 255.835L257.044 216.408L254.381 216.095L256.652 255.838C256.671 256.181 256.954 256.448 257.295 256.448Z" fill="#F0C19A"/>
<path d="M272.813 256.448H272.87C273.205 256.448 273.473 256.171 273.466 255.835L272.562 216.408L269.899 216.095L272.17 255.838C272.189 256.181 272.472 256.448 272.813 256.448Z" fill="#F0C19A"/>
<path d="M229.992 256.448H229.935C229.6 256.448 229.332 256.171 229.339 255.835L230.243 216.408L232.906 216.095L230.635 255.838C230.616 256.181 230.333 256.448 229.992 256.448Z" fill="#F0C19A"/>
<path d="M274.577 213.962V186.945C274.577 182.191 270.747 178.337 266.023 178.337H246.678C241.954 178.337 238.124 182.191 238.124 186.945V214.995L274.577 213.962Z" fill="#F4C9A5"/>
<path d="M234.658 218.227H272.008C273.427 218.227 274.577 217.07 274.577 215.643V213.962H234.658V218.227Z" fill="#F0C19A"/>
<path d="M230.182 218.227H258.44C259.489 218.227 260.339 217.371 260.339 216.316V215.873C260.339 214.818 259.489 213.962 258.44 213.962H230.182C229.134 213.962 228.284 214.818 228.284 215.873V216.316C228.284 217.371 229.134 218.227 230.182 218.227Z" fill="#FDDBBA"/>
<path d="M293.208 257.274H293.283C293.725 257.274 294.081 256.886 294.071 256.414L292.876 201.21L289.354 200.773L292.357 256.418C292.383 256.898 292.756 257.274 293.208 257.274Z" fill="#DB9B74"/>
<path d="M207.321 257.274H207.246C206.804 257.274 206.448 256.886 206.458 256.414L207.653 201.21L211.175 200.773L208.172 256.418C208.146 256.898 207.772 257.274 207.321 257.274Z" fill="#DB9B74"/>
<path d="M299.842 202.226H202.801C202.047 202.226 201.437 201.612 201.437 200.854V199.741C201.437 198.983 202.047 198.368 202.801 198.368H299.842C300.595 198.368 301.206 198.983 301.206 199.741V200.854C301.206 201.612 300.595 202.226 299.842 202.226Z" fill="#DB9B74"/>
<path d="M273.434 194.765L272.67 194.888L271.224 185.825L271.987 185.702L273.434 194.765Z" fill="#C23B35"/>
<path d="M271.351 184.168L271.224 185.826L271.987 185.702L271.351 184.168Z" fill="#FDDBBA"/>
<path d="M277.636 192.987L276.874 192.845L278.541 183.82L279.302 183.963L277.636 192.987Z" fill="#C23B35"/>
<path d="M279.214 182.302L278.541 183.82L279.302 183.963L279.214 182.302Z" fill="#F4C9A5"/>
<path d="M278.601 195.634L277.839 195.492L279.506 186.467L280.267 186.609L278.601 195.634Z" fill="#C23B35"/>
<path d="M280.179 184.949L279.506 186.468L280.267 186.61L280.179 184.949Z" fill="#F4C9A5"/>
<path d="M280.185 198.368H274.089V189.528H280.185V198.368Z" fill="#FC7600"/>
<path d="M277.137 198.368H271.041V189.528H277.137V198.368Z" fill="#FF912B"/>
<path d="M212.316 198.369H221.63V195.95H212.24C211.597 195.95 211.077 196.475 211.077 197.122C211.077 197.81 211.632 198.369 212.316 198.369Z" fill="#C23B35"/>
<path d="M221.097 198.369H231.697V195.95H221.07C220.416 195.95 219.886 196.484 219.886 197.141V197.151C219.886 197.824 220.428 198.369 221.097 198.369Z" fill="#FFEBD8"/>
<path d="M219.178 198.369H232.065C232.165 198.369 232.245 198.288 232.245 198.188C232.245 198.088 232.165 198.007 232.065 198.007H219.178C219.078 198.007 218.998 198.088 218.998 198.188C218.998 198.288 219.078 198.369 219.178 198.369Z" fill="#C23B35"/>
<path d="M219.178 196.312H232.065C232.165 196.312 232.245 196.231 232.245 196.131C232.245 196.031 232.165 195.95 232.065 195.95H219.178C219.078 195.95 218.998 196.031 218.998 196.131C218.998 196.231 219.078 196.312 219.178 196.312Z" fill="#C23B35"/>
<path d="M231.697 197.159L230.265 197.2L231.697 197.224V197.159Z" fill="#F9D0B3"/>
<path d="M231.697 196.602L228.291 196.643L231.697 196.668V196.602Z" fill="#F9D0B3"/>
<path d="M228.326 196.635C228.326 196.635 228.472 196.739 228.52 196.91C228.529 196.939 228.534 196.972 228.536 197.006C228.544 197.233 228.536 197.746 228.536 197.746L228.966 197.489L229.396 197.746V197.05C229.396 196.918 229.36 196.79 229.291 196.706C229.258 196.665 229.217 196.635 229.172 196.635H228.326Z" fill="#5C9CF4"/>
<path d="M228.326 196.635C228.326 196.635 228.472 196.739 228.52 196.91L229.384 196.921C229.384 196.921 229.35 196.675 229.172 196.635H228.326Z" fill="#478BE0"/>
<path d="M218.98 195.956H210.23V192.847H219.008C219.691 192.847 220.244 193.404 220.244 194.091V194.685C220.244 195.387 219.678 195.956 218.98 195.956Z" fill="#FFEBD8"/>
<path d="M227.712 194.126V194.594C227.712 194.844 227.646 195.078 227.529 195.279C227.294 195.684 226.857 195.956 226.358 195.956H209.962C209.853 195.956 209.765 195.867 209.765 195.758V195.689C209.765 195.58 209.853 195.491 209.962 195.491H219.957C220.01 195.426 220.057 195.355 220.097 195.279C220.191 195.102 220.244 194.899 220.244 194.684V194.09C220.244 193.98 220.229 193.874 220.203 193.773C220.158 193.602 220.078 193.445 219.971 193.311H209.962C209.853 193.311 209.765 193.223 209.765 193.114V193.044C209.765 192.935 209.853 192.847 209.962 192.847H226.441C227.021 192.847 227.511 193.238 227.663 193.773C227.695 193.885 227.712 194.004 227.712 194.126Z" fill="#5C9CF4"/>
<path d="M227.662 193.774H220.202C220.157 193.603 220.078 193.446 219.971 193.312H209.961C209.852 193.312 209.765 193.223 209.765 193.114V193.044C209.765 192.935 209.852 192.847 209.961 192.847H226.44C227.021 192.847 227.511 193.238 227.662 193.774Z" fill="#448DE8"/>
<path d="M210.23 194.401L211.444 194.453L210.23 194.485V194.401Z" fill="#F9D0B3"/>
<path d="M210.229 194.889L213.118 194.941L210.229 194.974V194.889Z" fill="#F9D0B3"/>
<path d="M228.404 192.847H223.402V190.522H228.447C228.816 190.522 229.114 190.823 229.114 191.193V192.132C229.114 192.526 228.796 192.847 228.404 192.847Z" fill="#FF912B"/>
<path d="M224.754 192.847H209.092V190.522H224.779C225.389 190.522 225.882 191.019 225.882 191.632V191.711C225.882 192.338 225.377 192.847 224.754 192.847Z" fill="#FFEBD8"/>
<path d="M226.977 192.846H208.48C208.388 192.846 208.313 192.77 208.313 192.678V192.666C208.313 192.574 208.388 192.499 208.48 192.499H226.977C227.069 192.499 227.144 192.574 227.144 192.666V192.678C227.144 192.77 227.069 192.846 226.977 192.846Z" fill="#FF912B"/>
<path d="M226.977 190.87H208.48C208.388 190.87 208.313 190.794 208.313 190.702V190.69C208.313 190.598 208.388 190.523 208.48 190.523H226.977C227.069 190.523 227.144 190.598 227.144 190.69V190.702C227.144 190.794 227.069 190.87 226.977 190.87Z" fill="#FF912B"/>
<path d="M289.684 196.793H289.023V185.336L295.788 167.966L283.709 158.548L284.114 158.022L296.584 167.746L289.684 185.461V196.793Z" fill="#F0C19A"/>
<path d="M282.344 159.748C282.04 159.531 281.969 159.107 282.184 158.801L283.19 157.374C283.405 157.068 283.827 156.995 284.13 157.212C284.434 157.429 284.506 157.853 284.29 158.159L283.285 159.586C283.069 159.892 282.648 159.965 282.344 159.748Z" fill="#F0C19A"/>
<path d="M295.16 167.766C295.16 167.28 295.552 166.885 296.036 166.885C296.519 166.885 296.911 167.28 296.911 167.766C296.911 168.253 296.519 168.648 296.036 168.648C295.552 168.648 295.16 168.253 295.16 167.766Z" fill="#F0C19A"/>
<path d="M280.755 169.499C280.714 169.522 280.673 169.546 280.632 169.568L280.623 169.573C280.584 169.596 280.544 169.618 280.504 169.639C279.403 170.106 276.979 167.83 275.011 164.452C273.044 161.075 272.259 157.841 273.207 157.111C273.245 157.087 273.284 157.063 273.324 157.04L273.332 157.035C273.372 157.009 273.412 156.985 273.453 156.961C276.892 154.951 281.316 156.129 283.331 159.59C285.348 163.053 284.195 167.488 280.755 169.499Z" fill="#FF912B"/>
<path d="M280.631 169.571L280.623 169.576C280.61 169.585 280.597 169.593 280.583 169.601C280.557 169.617 280.531 169.63 280.503 169.641C279.403 170.109 276.978 167.835 275.012 164.456C273.044 161.08 272.259 157.846 273.207 157.116C273.232 157.097 273.256 157.079 273.282 157.065C273.295 157.057 273.308 157.049 273.323 157.044L273.332 157.038C274.097 156.674 275.529 157.689 277.001 159.504C277.627 160.275 278.26 161.193 278.853 162.211C279.318 163.01 279.717 163.8 280.044 164.551C281.108 167.005 281.388 169.04 280.631 169.571Z" fill="#FDDBBA"/>
<path d="M280.045 164.547C279.429 164.79 278.726 164.827 278.044 164.604C276.48 164.092 275.62 162.406 276.122 160.837C276.295 160.299 276.606 159.844 277.001 159.5C277.628 160.272 278.261 161.19 278.854 162.207C279.319 163.006 279.718 163.796 280.045 164.547Z" fill="#FFEFE0"/>
<path d="M292.563 198.368H285.909V197.692C285.909 197.013 286.456 196.463 287.131 196.463H291.292C291.994 196.463 292.563 197.036 292.563 197.742V198.368Z" fill="#F0C19A"/>
<path d="M290.048 196.793H288.65V186.147H290.048V196.793Z" fill="#F0C19A"/>
<path d="M78.2175 206.894V208.165C78.2175 208.611 78.0743 208.974 77.8993 208.974H31.7781C31.6031 208.974 31.46 208.611 31.46 208.165V206.894C31.46 206.449 31.6031 206.085 31.7781 206.085H77.8993C78.0743 206.085 78.2175 206.449 78.2175 206.894Z" fill="#DB9B74"/>
<path d="M78.2173 206.894V208.165C78.2173 208.611 78.0861 208.974 77.9254 208.974H41.3104C41.1498 208.974 41.0186 208.611 41.0186 208.165V206.894C41.0186 206.449 41.1498 206.085 41.3104 206.085H77.9254C78.0861 206.085 78.2173 206.449 78.2173 206.894Z" fill="#F4C9A5"/>
<path d="M66.5438 256.998H33.8013V208.974H66.5438V256.998Z" fill="#F0C19A"/>
<path d="M75.7193 256.998H42.9768V208.974H75.7193V256.998Z" fill="#FDDBBA"/>
<path d="M73.9606 254.346H44.7368V210.331H73.9606V254.346ZM45.0524 254.028H73.6449V210.649H45.0524V254.028Z" fill="#F0C19A"/>
<path d="M73.803 225.209H44.8943V224.892H73.803V225.209Z" fill="#F0C19A"/>
<path d="M73.803 240.053H44.8943V239.736H73.803V240.053Z" fill="#F0C19A"/>
<path d="M62.3106 213.17H56.9463C56.6856 213.17 56.4731 212.956 56.4731 212.694C56.4731 212.431 56.6856 212.218 56.9463 212.218H62.3106C62.5713 212.218 62.7844 212.431 62.7844 212.694C62.7844 212.956 62.5713 213.17 62.3106 213.17Z" fill="#F0C19A"/>
<path d="M62.3106 227.685H56.9463C56.6856 227.685 56.4731 227.472 56.4731 227.209C56.4731 226.947 56.6856 226.733 56.9463 226.733H62.3106C62.5713 226.733 62.7844 226.947 62.7844 227.209C62.7844 227.472 62.5713 227.685 62.3106 227.685Z" fill="#F0C19A"/>
<path d="M62.3106 242.818H56.9463C56.6856 242.818 56.4731 242.604 56.4731 242.341C56.4731 242.079 56.6856 241.865 56.9463 241.865H62.3106C62.5713 241.865 62.7844 242.079 62.7844 242.341C62.7844 242.604 62.5713 242.818 62.3106 242.818Z" fill="#F0C19A"/>
<path d="M51.817 187.458C51.817 187.458 54.6092 183.646 51.575 181.589C51.575 181.589 49.3876 180.475 47.6877 180.708C47.6877 180.708 50.4064 184.599 49.6536 185.064C48.9008 185.529 46.9351 180.508 46.9351 180.508C46.9351 180.508 42.136 180.405 40.6576 181.262C40.6576 181.262 44.9778 184.302 44.1342 184.566C43.2907 184.831 38.6491 181.877 38.6491 181.877C38.6491 181.877 34.2703 182.972 34.7065 185.672C35.1427 188.372 36.7328 189.095 37.399 188.972C38.0651 188.849 41.8833 187.044 42.0097 187.59C42.1361 188.136 39.904 190.123 38.2541 190.333C38.2541 190.333 41.6357 193.56 43.64 192.402C45.6443 191.245 45.7056 189.646 46.9572 188.954C48.2087 188.261 49.3148 188.178 48.8245 188.825C48.3342 189.472 46.0329 190.239 45.389 191.612C44.7451 192.985 44.146 193.923 46.2717 193.435C48.3975 192.947 51.777 191.1 51.797 189.279C51.817 187.458 51.817 187.458 51.817 187.458Z" fill="#73B471"/>
<path d="M36.8936 185.589C36.8936 185.589 48.9036 184.207 51.8173 187.461C51.8173 187.461 52.5351 189.183 54.4634 190.655L54.802 191.405C54.802 191.405 52.5529 189.356 51.7961 189.279C51.7961 189.279 52.6501 184.909 36.8936 185.589Z" fill="#73B471"/>
<path d="M54.4638 190.672C54.4638 190.672 57.1931 192.398 57.6247 195.817L57.1579 195.895C57.1579 195.895 56.0715 192.408 54.4752 191.133C52.8789 189.859 54.4638 190.672 54.4638 190.672Z" fill="#73B471"/>
<path d="M63.6591 182.707C63.6591 182.707 58.9301 179.727 61.379 176.127C61.379 176.127 63.3046 173.938 65.2778 173.449C65.2778 173.449 63.972 178.935 65.0029 179.117C66.0337 179.3 66.0193 172.898 66.0193 172.898C66.0193 172.898 71.2603 170.679 73.2603 170.975C73.2603 170.975 69.8217 176.224 70.8652 176.146C71.9087 176.067 75.74 170.773 75.74 170.773C75.74 170.773 81.038 170.059 81.729 173.229C82.4201 176.399 80.983 177.894 80.1956 178.051C79.4083 178.207 74.4201 177.892 74.5181 178.55C74.6162 179.208 77.9364 180.419 79.8447 179.927C79.8447 179.927 77.5208 184.97 74.8109 184.573C72.101 184.176 71.3398 182.439 69.6607 182.225C67.9816 182.01 66.7279 182.404 67.5485 182.902C68.369 183.401 71.2367 183.237 72.5416 184.469C73.8465 185.7 74.9137 186.472 72.3603 186.867C69.807 187.261 65.2846 186.708 64.4719 184.707C63.6591 182.707 63.6591 182.707 63.6591 182.707Z" fill="#9BD399"/>
<path d="M79.2818 174.091C79.2818 174.091 65.4514 177.835 63.6563 182.707C63.6563 182.707 63.6142 184.925 62.1299 187.397L62.0827 188.374C62.0827 188.374 63.6696 185.124 64.4697 184.707C64.4697 184.707 61.6291 180.254 79.2818 174.091Z" fill="#73B471"/>
<path d="M62.1295 187.411C62.1295 187.411 59.8708 190.51 60.8812 194.473L61.4296 194.354C61.4296 194.354 61.1128 190.03 62.3179 187.924C63.523 185.817 62.1295 187.411 62.1295 187.411Z" fill="#73B471"/>
<path d="M54.7494 179.028C54.7494 179.028 60.9533 175.133 57.7525 170.41C57.7525 170.41 55.2347 167.536 52.6499 166.891C52.6499 166.891 54.3481 174.083 52.997 174.32C51.6458 174.556 51.6796 166.167 51.6796 166.167C51.6796 166.167 44.816 163.247 42.1944 163.63C42.1944 163.63 46.688 170.517 45.321 170.411C43.9539 170.306 38.9464 163.359 38.9464 163.359C38.9464 163.359 32.0052 162.41 31.0922 166.562C30.1792 170.715 32.0593 172.678 33.0904 172.885C34.1221 173.092 40.6596 172.691 40.5295 173.552C40.3994 174.415 36.0454 175.994 33.546 175.345C33.546 175.345 36.5799 181.96 40.1319 181.446C43.684 180.932 44.6847 178.658 46.8856 178.381C49.0866 178.103 50.7289 178.623 49.6523 179.274C48.5758 179.925 44.819 179.704 43.1059 181.314C41.3928 182.926 39.9923 183.935 43.3376 184.458C46.6829 184.981 52.6104 184.266 53.6799 181.647C54.75 179.027 54.7494 179.028 54.7494 179.028Z" fill="#9BD399"/>
<path d="M34.2961 167.698C34.2961 167.698 52.4116 172.638 54.7528 179.028C54.7528 179.028 54.8024 181.934 56.742 185.177L56.8016 186.458C56.8016 186.458 54.7303 182.195 53.6824 181.647C53.6824 181.647 57.4148 175.818 34.2961 167.698Z" fill="#73B471"/>
<path d="M56.7431 185.195C56.7431 185.195 59.6957 189.263 58.3624 194.454L57.6444 194.297C57.6444 194.297 58.0702 188.63 56.4958 185.866C54.9214 183.103 56.7431 185.195 56.7431 185.195Z" fill="#73B471"/>
<path d="M43.3259 193.029C43.3259 199.89 48.8541 205.452 55.6722 205.452C57.0959 205.452 58.4628 205.21 59.7353 204.764C64.5578 203.073 68.0184 198.458 68.0184 193.029H43.3259Z" fill="#FC7600"/>
<path d="M51.4529 193.029C51.4529 197.683 52.561 202.424 56.326 204.552C56.9523 204.905 59.0473 204.522 59.7348 204.763C64.5573 203.073 68.0179 198.458 68.0179 193.029H51.4529Z" fill="#FF912B"/>
<path d="M43.1555 206.085H68.1893C68.1893 205.662 68.0186 205.278 67.743 205.001C67.4674 204.723 67.0861 204.552 66.6655 204.552H44.6786C43.8374 204.552 43.1555 205.239 43.1555 206.085Z" fill="#FC7600"/>
<path d="M54.8848 206.085H68.1885C68.1885 205.662 68.0179 205.278 67.7423 205.001C67.4666 204.723 67.086 204.552 66.6654 204.552H56.4073C55.5666 204.552 54.8848 205.239 54.8848 206.085Z" fill="#FF912B"/>
<path d="M43.0454 193.41H68.4242V193.029H43.0454V193.41Z" fill="#C23B35"/>
<path d="M147.101 208.243L152.854 184.961L193.491 195.128L147.101 208.243ZM154.703 188.054L150.615 204.598L183.58 195.279L154.703 188.054Z" fill="#FDDBBA"/>
<path d="M165.58 202.468L163.705 201.998L166.732 189.749L168.607 190.218L165.58 202.468Z" fill="#F0C19A"/>
<path d="M0.123653 258.101H322.664C322.872 258.101 323.044 257.928 323.044 257.718V257.556C323.044 257.346 322.872 257.174 322.664 257.174H0.123653C-0.0850868 257.174 -0.256348 257.346 -0.256348 257.556V257.718C-0.256348 257.928 -0.0850868 258.101 0.123653 258.101Z" fill="#DBD6D6"/>
<path d="M135.676 204.196C132.889 221.654 130.592 240.468 131.586 250.374C132.405 253.147 134.937 254.071 137.175 254.432L135.638 256.12L131.305 256.369L125.525 254.077C125.525 254.077 125.859 252.928 126.125 250.924C126.432 248.595 125.359 243.272 125.359 243.272C125.359 243.272 122.539 224.886 124.144 220.757C124.599 219.584 124.899 218.242 125.085 216.784V216.783C125.557 213.07 125.292 208.605 124.981 204.266C124.644 199.552 124.252 194.986 124.695 191.691C126.716 176.648 126.74 163.638 126.74 163.638H138.084C138.084 163.638 141.299 172.827 139.8 180.706C138.529 187.404 137.043 195.636 135.676 204.196Z" fill="#FFAE73"/>
<path d="M160.112 153.259C160.112 153.259 161.516 152.019 162.493 151.432C163.47 150.845 166.105 150.413 166.264 151.565C166.335 152.079 165.33 153.105 164.643 153.439C163.957 153.774 163.81 154.268 163.054 154.912C162.298 155.555 160.602 155.433 160.602 155.433L160.112 153.259Z" fill="#FFAE73"/>
<path d="M119.89 136.828C119.693 135.663 132.598 135.906 129.642 145.803C129.642 145.803 151.841 152.437 145.258 136.7C142.978 131.252 144.479 127.85 145.636 124.606C146.795 121.361 147.462 111.052 139.003 109.356C139.003 109.356 137.146 107.788 134.039 108.306C126.972 109.484 103.659 135.543 119.89 136.828Z" fill="#1E3865"/>
<path d="M138.3 153.835C138.3 153.835 139.082 155.482 140.524 157.385C142.262 159.676 144.961 162.338 148.41 162.93C150.057 163.212 151.68 162.891 153.18 162.261C153.184 162.259 153.186 162.259 153.186 162.259C157.428 160.478 160.68 156.235 160.68 156.235C161.465 154.22 160.283 152.816 160.283 152.816C160.283 152.816 151.757 154.544 150.958 154.12C150.159 153.695 145.742 139.934 144.657 138.193C143.571 136.452 139.766 135.475 139.766 135.475L138.3 153.835Z" fill="#A7C7FF"/>
<path d="M140.523 157.388C142.261 159.679 144.96 162.34 148.408 162.932C150.055 163.214 151.678 162.892 153.178 162.262C153.013 162.28 148.806 162.707 147.199 159.661C145.559 156.553 143.821 151.636 141.251 153.204C140.143 153.881 140.153 155.625 140.523 157.388Z" fill="#85B2F3"/>
<path d="M108.963 256.983C108.963 256.983 106.198 256.754 105.063 256.66C103.929 256.566 102.707 255.587 102.558 253.504C102.408 251.422 100.167 250.107 99.7985 248.383C99.5452 247.199 100.429 246.442 101.255 245.871C101.633 245.608 101.999 245.386 102.237 245.18C103.095 244.441 104.123 241.029 104.123 241.029L108.062 243.544C108.062 243.544 105.858 246.694 106.677 250.508C107.06 252.292 107.398 253.934 108.474 255.029C108.727 255.289 109.023 255.516 109.368 255.709C111.101 256.675 108.963 256.983 108.963 256.983Z" fill="#FFAE73"/>
<path d="M116.765 144.917C116.765 144.917 116.262 147.954 116.134 151.645C116.049 154.092 118.193 157.587 118.465 158.427C119.148 160.533 120.101 160.956 120.101 160.956L127.535 163.566L130.15 164.483L138.825 162.768C138.825 162.768 143.68 152.367 142.705 146.153C141.731 139.939 139.768 135.499 139.768 135.499C139.768 135.499 130.304 132.026 122.582 133.503L116.765 144.917Z" fill="#A7C7FF"/>
<path d="M120.597 163.145C120.597 163.145 113.954 171.589 113.192 177.406C112.43 183.222 117.63 199.537 116.198 205.187C115.135 209.381 110.012 212.583 108.322 223.185C107.735 226.867 105.784 234.21 103.983 241.079L107.429 244.682C116.423 225.583 125.5 213.658 126.137 209.395C126.588 206.379 128.752 190.502 136.011 178.949C137.754 176.175 135.389 164.872 135.389 164.872L120.597 163.145Z" fill="#FFAE73"/>
<path d="M140.198 183.126C139.257 194.657 138.15 204.369 138.15 204.369C138.15 204.369 132.807 207.991 125.247 208.452L125.245 208.453H125.244C121.789 208.664 117.873 208.215 113.791 206.46C113.791 206.46 112.235 178.613 113.225 174.177C114.215 169.742 118.602 163.638 118.602 163.638L138.331 164.406C138.331 164.406 141.139 171.593 140.198 183.126Z" fill="#FF912B"/>
<path d="M138.969 162.413C138.969 162.413 137.167 163.581 133.831 163.327C129.847 163.023 120.095 160.975 120.095 160.975C120.095 160.975 119.541 162.159 119.438 163.456C119.438 163.456 131.188 167.664 138.406 165.737C138.406 165.737 139.465 164.126 138.969 162.413Z" fill="#FC7600"/>
<path d="M132.838 164.619C132.945 163.48 133.846 162.633 134.848 162.73C135.85 162.826 136.577 163.832 136.47 164.97C136.364 166.109 135.462 166.956 134.46 166.859C133.459 166.762 132.731 165.757 132.838 164.619ZM133.44 164.677C133.364 165.482 133.848 166.19 134.517 166.254C135.187 166.319 135.793 165.717 135.869 164.912C135.944 164.107 135.461 163.399 134.791 163.334C134.122 163.27 133.515 163.872 133.44 164.677Z" fill="white"/>
<path d="M109.978 163.335L122.704 173.77L136.924 156.243L124.198 145.807L109.978 163.335Z" fill="#1E3865"/>
<path d="M125.785 162.86C125.785 162.86 130.338 163.245 130.358 164.328C130.378 165.411 129.333 167.673 128.775 167.79C128.218 167.907 124.988 164.902 124.988 164.902L125.785 162.86Z" fill="#FFAE73"/>
<path d="M123.321 133.054C123.321 133.054 117.276 133.68 115.133 139.432C112.99 145.185 108.885 154.861 108.936 156.464C108.987 158.067 111.605 162.929 124.915 165.337C124.915 165.337 126.237 163.846 126.118 162.705C126.118 162.705 117.639 155.85 117.635 155.016C117.627 153.439 118.872 151.317 125.886 143.792C127.793 141.747 123.321 133.054 123.321 133.054Z" fill="#A7C7FF"/>
<path d="M156.702 168.934L183.011 118.831C183.132 118.603 183.278 118.39 183.052 118.264L182.847 118.149C182.616 118.02 182.518 118.168 182.391 118.399L155.017 167.549C154.757 168.019 154.904 168.611 155.355 168.905L155.768 169.175C156.09 169.385 156.522 169.274 156.702 168.934Z" fill="#FDDBBA"/>
<path d="M161.721 153.146C161.721 153.146 162.545 153.197 163.436 153.049C164.136 152.933 165.044 152.695 165.044 152.695C165.527 153.121 163.639 153.983 163.117 154.645C162.691 155.184 162.252 155.31 161.2 155.437L161.721 153.146Z" fill="#FFAE73"/>
<path d="M130.249 257.002C132.774 256.687 132.106 257.336 135.644 257.357C139.182 257.379 140.393 256.192 140.56 255.682C140.709 255.23 139.002 254.864 137.175 254.432L137.11 254.478C137.11 254.478 134.886 255.714 131.97 255.442C129.594 255.221 127.164 254.243 125.524 254.077C125.424 254.618 125.324 255.172 125.37 255.731C125.498 257.318 127.725 257.317 130.249 257.002Z" fill="#1E3865"/>
<path d="M108.803 257.416C108.803 257.416 105.999 257.023 104.849 256.861C103.699 256.7 102.51 255.634 102.475 253.506C102.44 251.378 100.232 249.91 99.9535 248.135C99.7622 246.915 100.705 246.195 101.579 245.662C101.923 246.376 102.639 248.139 103.15 251.275C103.745 254.94 106.308 255.401 108.415 255.4C108.658 255.678 108.947 255.927 109.288 256.143C110.998 257.226 108.803 257.416 108.803 257.416Z" fill="#1E3865"/>
<path d="M125.576 132.539C126.834 132.488 127.987 131.816 128.61 130.72C129.36 129.399 130.126 127.386 130.577 124.773L130.941 124.917L137.076 127.328C137.076 127.328 136.578 129.308 136.241 131.198C136.238 131.214 136.235 131.23 136.232 131.245C135.935 132.886 136.755 134.53 138.247 135.269C139.009 135.646 133.301 140.928 132.792 140.712C131.734 140.263 125.177 132.555 125.576 132.539Z" fill="#FFAE73"/>
<path d="M137.08 127.32C137.08 127.32 136.582 129.3 136.245 131.19C132.708 130.447 131.401 126.853 130.948 124.911L137.08 127.32Z" fill="#F48F4E"/>
<path d="M137.961 129.315C137.961 129.315 129.519 127.934 130.44 122.673C131.36 117.412 130.89 113.69 136.318 114.349C141.747 115.008 142.44 117.204 142.559 119.036C142.678 120.868 140.181 129.538 137.961 129.315Z" fill="#FFAE73"/>
<path d="M140.182 114.914C140.182 114.914 136.793 120.666 133.098 120.939C129.403 121.213 128.037 119.986 128.037 119.986C128.037 119.986 131.129 118.314 132.355 114.644C132.355 114.644 138.961 111.665 140.182 114.914Z" fill="#1E3865"/>
<path d="M139.513 115.299C139.513 115.299 141.109 116.248 141.593 117.626C142.066 118.973 142.367 120.7 141.881 122.663C141.881 122.663 144.357 118.781 142.823 116.055C141.195 113.164 139.513 115.299 139.513 115.299Z" fill="#1E3865"/>
<path d="M136.688 126.86C136.688 126.86 136.724 127.504 138.276 127.686C138.276 127.686 139.579 127.839 139.659 127.152C139.659 127.152 138.495 126.442 136.688 126.86Z" fill="white"/>
<path d="M132.806 140.737C132.806 140.737 127.632 134.01 127.653 131.467C127.653 131.467 126.148 131.734 124.265 133.253C124.265 133.253 125.321 136.864 126.864 138.171C126.864 138.171 128.081 138.117 129.064 137.818C129.064 137.818 128.37 138.76 127.837 139.311C127.837 139.311 130.305 141.048 132.806 140.737Z" fill="#D3E5FF"/>
<path d="M135.609 132.467C135.609 132.467 137.488 136.852 132.797 140.732C132.797 140.732 135.537 140.475 137.098 138.704C137.098 138.704 136.766 137.64 136.423 137.368C136.423 137.368 137.261 137.123 137.724 137.646C137.724 137.646 138.242 135.441 137.998 134.732C137.754 134.022 136.278 132.509 135.609 132.467Z" fill="#D3E5FF"/>
<path d="M132.369 140.695C132.391 140.457 132.601 140.283 132.838 140.306C133.074 140.329 133.248 140.54 133.226 140.778C133.203 141.015 132.994 141.189 132.757 141.166C132.52 141.143 132.347 140.932 132.369 140.695Z" fill="#1E3865"/>
<path d="M134.073 147.02C134.096 146.782 134.306 146.608 134.542 146.631C134.779 146.654 134.953 146.865 134.93 147.102C134.908 147.34 134.698 147.514 134.461 147.491C134.225 147.468 134.051 147.257 134.073 147.02Z" fill="#1E3865"/>
<path d="M133.823 154.222C133.846 153.984 134.056 153.81 134.292 153.833C134.529 153.856 134.703 154.067 134.68 154.304C134.658 154.542 134.448 154.716 134.211 154.693C133.975 154.67 133.801 154.459 133.823 154.222Z" fill="#1E3865"/>
<path d="M140.198 183.126C139.257 194.657 138.151 204.369 138.151 204.369C138.151 204.369 132.807 207.992 125.247 208.453C125.381 208.403 129.681 206.734 132.863 202.985C136.096 199.178 140.198 183.126 140.198 183.126Z" fill="#FC7600"/>
</g>
<path d="M91.7585 83V74.2727H93.6037V81.4787H97.3452V83H91.7585ZM100.4 83.1236C99.9819 83.1236 99.6097 83.0511 99.283 82.9062C98.9563 82.7585 98.6978 82.5412 98.5075 82.2543C98.32 81.9645 98.2262 81.6037 98.2262 81.1719C98.2262 80.8082 98.293 80.5028 98.4265 80.2557C98.56 80.0085 98.7418 79.8097 98.9719 79.6591C99.2021 79.5085 99.4634 79.3949 99.756 79.3182C100.051 79.2415 100.361 79.1875 100.685 79.1562C101.066 79.1165 101.373 79.0795 101.605 79.0455C101.838 79.0085 102.007 78.9545 102.113 78.8835C102.218 78.8125 102.27 78.7074 102.27 78.5682V78.5426C102.27 78.2727 102.185 78.0639 102.015 77.9162C101.847 77.7685 101.608 77.6946 101.299 77.6946C100.972 77.6946 100.712 77.767 100.519 77.9119C100.326 78.054 100.198 78.233 100.135 78.4489L98.4563 78.3125C98.5415 77.9148 98.7092 77.571 98.9592 77.2812C99.2092 76.9886 99.5316 76.7642 99.9265 76.608C100.324 76.4489 100.784 76.3693 101.307 76.3693C101.671 76.3693 102.019 76.4119 102.351 76.4972C102.686 76.5824 102.983 76.7145 103.242 76.8935C103.503 77.0724 103.709 77.3026 103.86 77.5838C104.01 77.8622 104.086 78.196 104.086 78.5852V83H102.364V82.0923H102.313C102.208 82.2969 102.067 82.4773 101.891 82.6335C101.715 82.7869 101.503 82.9077 101.256 82.9957C101.009 83.081 100.723 83.1236 100.4 83.1236ZM100.919 81.8707C101.186 81.8707 101.422 81.8182 101.627 81.7131C101.831 81.6051 101.992 81.4602 102.108 81.2784C102.225 81.0966 102.283 80.8906 102.283 80.6605V79.9659C102.226 80.0028 102.148 80.0369 102.049 80.0682C101.952 80.0966 101.843 80.1236 101.721 80.1491C101.598 80.1719 101.476 80.1932 101.354 80.2131C101.232 80.2301 101.121 80.2457 101.022 80.2599C100.809 80.2912 100.623 80.3409 100.463 80.4091C100.304 80.4773 100.181 80.5696 100.093 80.6861C100.005 80.7997 99.9606 80.9418 99.9606 81.1122C99.9606 81.3594 100.05 81.5483 100.229 81.679C100.411 81.8068 100.641 81.8707 100.919 81.8707ZM107.309 79.2159V83H105.494V76.4545H107.224V77.6094H107.301C107.446 77.2287 107.689 76.9276 108.029 76.706C108.37 76.4815 108.784 76.3693 109.27 76.3693C109.724 76.3693 110.12 76.4688 110.458 76.6676C110.797 76.8665 111.059 77.1506 111.247 77.5199C111.434 77.8864 111.528 78.3239 111.528 78.8324V83H109.713V79.1562C109.716 78.7557 109.613 78.4432 109.406 78.2188C109.199 77.9915 108.913 77.8778 108.549 77.8778C108.305 77.8778 108.089 77.9304 107.902 78.0355C107.717 78.1406 107.572 78.294 107.467 78.4957C107.365 78.6946 107.312 78.9347 107.309 79.2159ZM115.908 85.5909C115.32 85.5909 114.815 85.5099 114.395 85.348C113.977 85.1889 113.645 84.9716 113.398 84.696C113.151 84.4205 112.99 84.1108 112.916 83.767L114.595 83.5412C114.646 83.6719 114.727 83.794 114.838 83.9077C114.949 84.0213 115.095 84.1122 115.277 84.1804C115.462 84.2514 115.686 84.2869 115.95 84.2869C116.345 84.2869 116.67 84.1903 116.926 83.9972C117.185 83.8068 117.314 83.4872 117.314 83.0384V81.8409H117.237C117.158 82.0227 117.038 82.1946 116.879 82.3565C116.72 82.5185 116.516 82.6506 116.266 82.7528C116.016 82.8551 115.717 82.9062 115.371 82.9062C114.879 82.9062 114.432 82.7926 114.028 82.5653C113.628 82.3352 113.308 81.9844 113.07 81.5128C112.834 81.0384 112.716 80.4389 112.716 79.7145C112.716 78.973 112.837 78.3537 113.078 77.8565C113.32 77.3594 113.641 76.9872 114.041 76.7401C114.445 76.4929 114.886 76.3693 115.366 76.3693C115.733 76.3693 116.04 76.4318 116.287 76.5568C116.534 76.679 116.733 76.8324 116.884 77.017C117.037 77.1989 117.155 77.3778 117.237 77.554H117.305V76.4545H119.108V83.0639C119.108 83.6207 118.972 84.0866 118.699 84.4616C118.426 84.8366 118.048 85.1179 117.565 85.3054C117.085 85.4957 116.533 85.5909 115.908 85.5909ZM115.946 81.5426C116.239 81.5426 116.486 81.4702 116.688 81.3253C116.892 81.1776 117.048 80.9673 117.156 80.6946C117.267 80.419 117.322 80.0895 117.322 79.706C117.322 79.3224 117.268 78.9901 117.161 78.7088C117.053 78.4247 116.896 78.2045 116.692 78.0483C116.487 77.892 116.239 77.8139 115.946 77.8139C115.648 77.8139 115.396 77.8949 115.192 78.0568C114.987 78.2159 114.832 78.4375 114.727 78.7216C114.622 79.0057 114.57 79.3338 114.57 79.706C114.57 80.0838 114.622 80.4105 114.727 80.6861C114.835 80.9588 114.99 81.1705 115.192 81.321C115.396 81.4687 115.648 81.5426 115.946 81.5426ZM124.75 80.2131V76.4545H126.565V83H124.822V81.8111H124.754C124.607 82.1946 124.361 82.5028 124.017 82.7358C123.676 82.9687 123.26 83.0852 122.768 83.0852C122.331 83.0852 121.946 82.9858 121.614 82.7869C121.281 82.5881 121.021 82.3054 120.834 81.9389C120.649 81.5724 120.555 81.1335 120.553 80.6222V76.4545H122.368V80.2983C122.371 80.6847 122.474 80.9901 122.679 81.2145C122.884 81.4389 123.158 81.5511 123.501 81.5511C123.72 81.5511 123.925 81.5014 124.115 81.402C124.305 81.2997 124.459 81.1491 124.575 80.9503C124.695 80.7514 124.753 80.5057 124.75 80.2131ZM129.884 83.1236C129.466 83.1236 129.094 83.0511 128.767 82.9062C128.441 82.7585 128.182 82.5412 127.992 82.2543C127.804 81.9645 127.711 81.6037 127.711 81.1719C127.711 80.8082 127.777 80.5028 127.911 80.2557C128.044 80.0085 128.226 79.8097 128.456 79.6591C128.686 79.5085 128.948 79.3949 129.24 79.3182C129.536 79.2415 129.846 79.1875 130.169 79.1562C130.55 79.1165 130.857 79.0795 131.09 79.0455C131.323 79.0085 131.492 78.9545 131.597 78.8835C131.702 78.8125 131.755 78.7074 131.755 78.5682V78.5426C131.755 78.2727 131.669 78.0639 131.499 77.9162C131.331 77.7685 131.093 77.6946 130.783 77.6946C130.456 77.6946 130.196 77.767 130.003 77.9119C129.81 78.054 129.682 78.233 129.62 78.4489L127.941 78.3125C128.026 77.9148 128.194 77.571 128.444 77.2812C128.694 76.9886 129.016 76.7642 129.411 76.608C129.809 76.4489 130.269 76.3693 130.792 76.3693C131.155 76.3693 131.503 76.4119 131.836 76.4972C132.171 76.5824 132.468 76.7145 132.726 76.8935C132.988 77.0724 133.194 77.3026 133.344 77.5838C133.495 77.8622 133.57 78.196 133.57 78.5852V83H131.848V82.0923H131.797C131.692 82.2969 131.551 82.4773 131.375 82.6335C131.199 82.7869 130.988 82.9077 130.74 82.9957C130.493 83.081 130.208 83.1236 129.884 83.1236ZM130.404 81.8707C130.671 81.8707 130.907 81.8182 131.111 81.7131C131.316 81.6051 131.476 81.4602 131.593 81.2784C131.709 81.0966 131.767 80.8906 131.767 80.6605V79.9659C131.711 80.0028 131.632 80.0369 131.533 80.0682C131.436 80.0966 131.327 80.1236 131.205 80.1491C131.083 80.1719 130.961 80.1932 130.838 80.2131C130.716 80.2301 130.605 80.2457 130.506 80.2599C130.293 80.2912 130.107 80.3409 129.948 80.4091C129.789 80.4773 129.665 80.5696 129.577 80.6861C129.489 80.7997 129.445 80.9418 129.445 81.1122C129.445 81.3594 129.534 81.5483 129.713 81.679C129.895 81.8068 130.125 81.8707 130.404 81.8707ZM137.927 85.5909C137.339 85.5909 136.835 85.5099 136.414 85.348C135.997 85.1889 135.664 84.9716 135.417 84.696C135.17 84.4205 135.01 84.1108 134.936 83.767L136.615 83.5412C136.666 83.6719 136.747 83.794 136.858 83.9077C136.968 84.0213 137.115 84.1122 137.297 84.1804C137.481 84.2514 137.706 84.2869 137.97 84.2869C138.365 84.2869 138.69 84.1903 138.946 83.9972C139.204 83.8068 139.333 83.4872 139.333 83.0384V81.8409H139.257C139.177 82.0227 139.058 82.1946 138.899 82.3565C138.74 82.5185 138.535 82.6506 138.285 82.7528C138.035 82.8551 137.737 82.9062 137.39 82.9062C136.899 82.9062 136.451 82.7926 136.048 82.5653C135.647 82.3352 135.328 81.9844 135.089 81.5128C134.853 81.0384 134.735 80.4389 134.735 79.7145C134.735 78.973 134.856 78.3537 135.098 77.8565C135.339 77.3594 135.66 76.9872 136.061 76.7401C136.464 76.4929 136.906 76.3693 137.386 76.3693C137.752 76.3693 138.059 76.4318 138.306 76.5568C138.554 76.679 138.752 76.8324 138.903 77.017C139.056 77.1989 139.174 77.3778 139.257 77.554H139.325V76.4545H141.127V83.0639C141.127 83.6207 140.991 84.0866 140.718 84.4616C140.446 84.8366 140.068 85.1179 139.585 85.3054C139.105 85.4957 138.552 85.5909 137.927 85.5909ZM137.966 81.5426C138.258 81.5426 138.505 81.4702 138.707 81.3253C138.912 81.1776 139.068 80.9673 139.176 80.6946C139.287 80.419 139.342 80.0895 139.342 79.706C139.342 79.3224 139.288 78.9901 139.18 78.7088C139.072 78.4247 138.916 78.2045 138.711 78.0483C138.507 77.892 138.258 77.8139 137.966 77.8139C137.667 77.8139 137.416 77.8949 137.211 78.0568C137.007 78.2159 136.852 78.4375 136.747 78.7216C136.642 79.0057 136.589 79.3338 136.589 79.706C136.589 80.0838 136.642 80.4105 136.747 80.6861C136.855 80.9588 137.01 81.1705 137.211 81.321C137.416 81.4687 137.667 81.5426 137.966 81.5426ZM145.555 83.1278C144.882 83.1278 144.302 82.9915 143.816 82.7188C143.333 82.4432 142.961 82.054 142.7 81.5511C142.439 81.0455 142.308 80.4474 142.308 79.7571C142.308 79.0838 142.439 78.4929 142.7 77.9844C142.961 77.4759 143.329 77.0795 143.804 76.7955C144.281 76.5114 144.841 76.3693 145.483 76.3693C145.914 76.3693 146.316 76.4389 146.689 76.5781C147.064 76.7145 147.39 76.9205 147.669 77.196C147.95 77.4716 148.169 77.8182 148.325 78.2358C148.481 78.6506 148.559 79.1364 148.559 79.6932V80.1918H143.032V79.0668H146.85C146.85 78.8054 146.794 78.5739 146.68 78.3722C146.566 78.1705 146.409 78.0128 146.207 77.8991C146.008 77.7827 145.777 77.7244 145.512 77.7244C145.237 77.7244 144.993 77.7884 144.779 77.9162C144.569 78.0412 144.404 78.2102 144.285 78.4233C144.166 78.6335 144.105 78.8679 144.102 79.1264V80.196C144.102 80.5199 144.162 80.7997 144.281 81.0355C144.403 81.2713 144.575 81.4531 144.797 81.581C145.018 81.7088 145.281 81.7727 145.585 81.7727C145.787 81.7727 145.971 81.7443 146.139 81.6875C146.306 81.6307 146.45 81.5455 146.569 81.4318C146.689 81.3182 146.779 81.179 146.842 81.0142L148.521 81.125C148.436 81.5284 148.261 81.8807 147.997 82.1818C147.735 82.4801 147.397 82.7131 146.983 82.8807C146.571 83.0455 146.095 83.1278 145.555 83.1278Z" fill="#A2A2A2"/>
<g clip-path="url(#clip1_877_1720)">
<mask id="mask1_877_1720" style="mask-type:luminance" maskUnits="userSpaceOnUse" x="-15" y="21" width="122" height="122">
<path d="M107 21H-15V143H107V21Z" fill="white"/>
</mask>
<g mask="url(#mask1_877_1720)">
<path d="M53.3531 121.606C75.1949 117.38 89.4747 96.2474 85.2482 74.4056C81.0218 52.5638 59.8896 38.284 38.0478 42.5105C16.206 46.7369 1.92619 67.8691 6.15265 89.7109C10.3791 111.553 31.5113 125.833 53.3531 121.606Z" fill="#C1E1FA"/>
<path d="M61.7822 63.8223C61.7822 63.8223 57.8294 64.2764 57.3461 64.9915C56.8629 65.7067 58.757 69.07 60.0231 67.5817C61.2892 66.0935 63.5219 63.1748 64.8362 63.5422C66.1506 63.9095 66.9914 63.4359 67.8902 63.262C69.2046 63.6293 70.2773 64.3542 71.1664 65.7363C71.7923 66.4103 70.5575 67.4082 70.9151 67.6499C71.2726 67.8915 72.0217 67.7466 72.1135 67.418L72.4808 66.1036L73.2539 66.8865C73.5633 65.2725 71.0602 63.5811 71.6014 63.1655C72.6839 62.3344 74.5103 66.9542 75.6508 66.4227C76.7912 65.8912 75.6025 64.5671 76.8589 64.6348C77.4484 66.0748 78.2215 66.8577 79.7775 66.8674C80.7111 66.8733 82.0584 65.8044 82.242 65.1472C82.4257 64.49 82.1938 63.2916 81.2565 60.054C80.3192 56.8163 75.9702 53.6171 74.1244 52.1094C72.2785 50.6016 69.4661 50.5242 68.9828 51.2393C68.4996 51.9545 68.3739 52.9113 67.8327 53.3268C67.2914 53.7424 66.151 54.2739 65.5518 54.3898C64.9526 54.5058 65.7512 55.9054 66.7405 55.7139C67.2043 58.1108 68.9537 55.9073 69.4852 57.0478C70.0167 58.1882 66.663 58.5263 66.663 58.5263L61.7822 63.8223Z" fill="#8EB99A"/>
<path d="M62.4705 59.4949C62.4705 59.4949 61.2433 54.7592 61.8425 54.6433C62.4417 54.5273 63.8623 57.0498 63.9783 57.649C64.0942 58.2483 63.6689 59.263 63.1277 59.6786C62.5865 60.0941 62.4705 59.4949 62.4705 59.4949Z" fill="#5B903B" fill-opacity="0.5"/>
<path d="M59.9572 59.36C59.5996 59.1184 59.7832 58.4612 60.0249 58.1037C60.2665 57.7461 60.9237 57.9297 61.2813 58.1714C61.6388 58.413 61.4552 59.0702 61.2136 59.4278C60.9719 59.7853 60.3147 59.6017 59.9572 59.36Z" fill="#5B903B" fill-opacity="0.5"/>
<path d="M61.9713 71.2705C61.1305 71.744 58.0185 71.7246 57.4773 72.1401C56.936 72.5557 56.3948 72.9712 56.2112 73.6284C56.0275 74.2856 56.3271 74.2276 56.1435 74.8848C55.9598 75.542 53.012 77.9773 52.7027 79.5913C52.3933 81.2053 53.9011 79.3594 53.8334 80.6158C53.7657 81.8722 52.6929 81.1473 53.0988 83.2445C53.5046 85.3417 54.6933 86.6658 55.1088 87.2071C55.5244 87.7483 57.7278 89.4977 59.7671 88.7923C61.8063 88.0868 61.7122 86.8618 63.0724 86.5985C64.4327 86.3353 64.3868 86.9659 65.7012 87.3332C67.0155 87.7005 67.9482 86.8984 68.5715 87.7102C69.1949 88.5221 68.526 89.081 68.7357 90.165C68.9455 91.249 72.1279 93.2385 72.5337 95.3357C72.9395 97.433 71.7314 99.2208 71.9053 100.12C72.0792 101.018 72.6784 100.903 73.094 101.444C73.5095 101.985 73.4998 103.541 73.9733 104.382C74.4468 105.223 74.7465 105.165 75.162 105.706C75.5776 106.247 75.3262 108.161 76.0993 108.944C76.8725 109.726 78.7378 108.122 78.9794 107.765C79.2211 107.407 80.7965 104.305 80.9802 103.648C81.1638 102.99 81.2315 101.734 81.6568 100.719C82.0821 99.7045 83.7735 97.2015 84.1988 96.1867C84.6241 95.1719 85.8711 87.1601 85.8809 85.6041C85.8906 84.0481 86.3645 75.2533 85.4175 73.5717C84.4704 71.89 83.5136 71.7643 82.8565 71.5807C82.1993 71.397 81.1168 72.2281 80.4596 72.0444C79.8024 71.8608 80.0441 71.5032 79.0873 71.3775C78.1305 71.2519 75.2504 72.4308 74.5353 71.9475C73.8201 71.4643 72.989 70.3818 72.0902 70.5557C71.1914 70.7297 71.1816 72.2857 69.9832 72.5176C68.7848 72.7495 66.9292 72.7977 66.0981 71.7152C65.5454 70.9954 65.7502 69.9176 64.7935 69.7919C63.8367 69.6663 62.8122 70.797 61.9713 71.2705Z" fill="#8EB99A"/>
<path d="M43.4489 119.148C43.9127 121.545 45.4784 119.998 45.7103 121.197C45.9422 122.395 43.3715 121.96 41.9991 121.293C40.6268 120.626 38.9066 118.162 38.7906 117.563C38.6747 116.963 38.037 113.668 37.6794 113.426C37.3218 113.184 36.4327 111.802 36.3168 111.203C36.2008 110.604 36.3942 108.391 36.3942 108.391C36.2203 107.492 35.3892 106.409 35.2153 105.511C35.0413 104.612 35.1768 102.099 34.7612 101.558C34.3456 101.017 31.6589 99.9824 30.5862 99.2575C29.5135 98.5326 27.426 97.3824 27.0201 95.2852C26.6143 93.1879 30.3353 91.5355 29.9294 89.4382C29.5236 87.341 26.7692 87.5632 25.9961 86.7803C25.2229 85.9974 24.6914 84.857 22.9615 83.9484C21.1736 82.7403 14.4084 83.1169 14.0606 81.3193C13.7127 79.5217 15.3358 78.2751 13.5485 77.0669C11.7612 75.8586 9.7311 75.0081 9.37352 74.7665C9.01595 74.5249 7.52766 73.2588 7.12183 71.1615C6.54209 68.1655 13.2015 55.998 16.2652 54.1619C19.3284 52.3259 22.1883 54.2584 22.5472 54.5004C22.9048 54.7421 26.1907 55.6603 26.9156 54.5876C27.6405 53.5149 26.0265 53.2055 26.0265 53.2055C26.0265 53.2055 24.3545 52.5966 24.4802 51.6398C24.6059 50.683 25.6786 51.4079 26.935 51.4756C28.1914 51.5433 30.8396 49.1659 31.6127 49.9488C32.3859 50.7317 29.2642 52.2682 30.9941 53.1768C32.724 54.0853 32.9851 50.6157 33.8839 50.4418C34.7827 50.2679 33.9321 52.2974 35.4881 52.3071C37.0441 52.3169 38.2523 50.529 40.6491 50.0652C42.4467 49.7173 43.8093 51.9402 45.0657 52.008C45.7229 52.1916 45.9502 51.6988 46.3221 52.0757C47.0952 52.8585 45.9451 54.946 45.3459 55.062C44.7467 55.1779 42.3113 52.2301 40.8713 52.8196C39.4312 53.4091 37.9814 55.5545 37.3822 55.6705C36.783 55.7864 33.3135 55.5254 32.7143 55.6413C32.115 55.7572 29.0513 57.5934 29.6408 59.0334C30.2303 60.4735 32.3275 60.0677 32.3275 60.0677C32.2018 61.0245 32.1963 62.262 33.3905 62.3486C34.5846 62.4351 36.0387 59.9712 36.3383 59.9132C36.6379 59.8552 38.0682 60.8218 38.6674 60.7058C39.2666 60.5899 40.1752 58.8599 41.6732 58.5701C43.1712 58.2802 44.1762 60.2615 44.4661 61.7595C44.756 63.2575 39.6145 62.3875 38.59 63.5182C36.1834 65.538 38.0293 67.0457 33.8251 69.4134C29.6209 71.781 30.5777 71.9067 29.2536 73.0954C27.9295 74.2841 29.1664 77.4638 27.968 77.6957C26.7696 77.9276 26.4315 74.574 23.7351 75.0957C21.0386 75.6175 20.9129 76.5743 20.4297 77.2894C19.9464 78.0046 18.7199 80.3014 20.2845 81.3582C21.8492 82.415 24.4307 78.691 25.3778 80.3727C23.6864 82.8757 25.4681 81.9093 26.4988 82.9531C26.7307 84.1516 26.7112 87.2636 28.8085 86.8577C30.9057 86.4519 31.824 83.166 33.4959 83.7749C35.1678 84.3839 35.3418 85.2827 35.9989 85.4664C36.6561 85.65 37.7966 85.1185 38.4538 85.3022C39.1109 85.4858 39.6424 86.6263 40.3576 87.1095C41.0728 87.5928 42.2712 87.3609 43.2859 87.7862C44.3007 88.2115 45.3057 90.1927 46.3205 90.618C47.3352 91.0433 50.0897 90.8211 50.7468 91.0048C51.404 91.1885 51.2204 91.8456 51.6359 92.3869C52.0515 92.9281 53.6075 92.9378 53.8394 94.1363C54.0713 95.3347 52.6215 97.4802 52.4378 98.1373C52.2542 98.7945 53.0176 101.133 52.5923 102.148C52.167 103.163 48.5138 103.559 48.2722 103.917C48.0305 104.274 48.127 107.985 48.127 107.985C47.3924 110.614 41.1649 113.519 42.038 115.069C42.9851 116.751 42.9851 116.751 43.4489 119.148Z" fill="#8EB99A"/>
</g>
<g clip-path="url(#clip2_877_1720)">
<path d="M3.25781 98.7578C3.25781 99.1704 3.4217 99.566 3.71342 99.8578C4.00515 100.149 4.40081 100.313 4.81337 100.313H15.7023C16.1148 100.313 16.5105 100.149 16.8022 99.8578C17.0939 99.566 17.2578 99.1704 17.2578 98.7578V97.2023H3.25781V98.7578Z" fill="#FFCD05"/>
<path d="M3.25781 93.7023H17.2578V97.2023H3.25781V93.7023Z" fill="#ED1F24"/>
<path d="M15.7023 90.2023H4.81337C4.40081 90.2023 4.00515 90.3661 3.71342 90.6579C3.4217 90.9496 3.25781 91.3453 3.25781 91.7578L3.25781 93.7023H17.2578V91.7578C17.2578 91.3453 17.0939 90.9496 16.8022 90.6579C16.5105 90.3661 16.1148 90.2023 15.7023 90.2023Z" fill="#141414"/>
</g>
<g clip-path="url(#clip3_877_1720)">
<path d="M74.8854 63.3856C74.8854 63.7982 74.7215 64.1939 74.4298 64.4856C74.1381 64.7773 73.7424 64.9412 73.3299 64.9412H70.2188V54.8301H73.3299C73.7424 54.8301 74.1381 54.994 74.4298 55.2857C74.7215 55.5774 74.8854 55.9731 74.8854 56.3856V63.3856Z" fill="#ED2939"/>
<path d="M62.4413 54.8302C62.0287 54.8302 61.6331 54.9941 61.3414 55.2858C61.0496 55.5775 60.8857 55.9732 60.8857 56.3857V63.3857C60.8857 63.7983 61.0496 64.194 61.3414 64.4857C61.6331 64.7774 62.0287 64.9413 62.4413 64.9413H65.5524V54.8302H62.4413Z" fill="#002495"/>
<path d="M65.5527 54.8301H70.2194V64.9412H65.5527V54.8301Z" fill="#EEEEEE"/>
</g>
<g clip-path="url(#clip4_877_1720)">
<path d="M83.2497 112.75C83.2497 113.162 83.0858 113.558 82.7941 113.85C82.5023 114.142 82.1067 114.305 81.6941 114.305H78.583V104.194H81.6941C82.1067 104.194 82.5023 104.358 82.7941 104.65C83.0858 104.942 83.2497 105.337 83.2497 105.75V112.75Z" fill="#CE2B37"/>
<path d="M70.8056 104.194C70.393 104.194 69.9973 104.358 69.7056 104.65C69.4139 104.942 69.25 105.337 69.25 105.75V112.75C69.25 113.163 69.4139 113.558 69.7056 113.85C69.9973 114.142 70.393 114.306 70.8056 114.306H73.9167V104.194H70.8056Z" fill="#009246"/>
<path d="M73.917 104.194H78.5837V114.305H73.917V104.194Z" fill="#EEEEEE"/>
</g>
<g clip-path="url(#clip5_877_1720)">
<path d="M7 50.5229V52.0556H9.18867L7 50.5229ZM8.81378 59.0556H12.0556V56.7856L8.81378 59.0556ZM15.9444 56.786V59.0556H19.1858L15.9444 56.786ZM7 55.9444V57.4771L9.18944 55.9444H7ZM19.1866 48.9444H15.9444V51.2144L19.1866 48.9444ZM21 57.4774V55.9444H18.8102L21 57.4774ZM21 52.0556V50.5229L18.8109 52.0556H21ZM12.0556 48.9444H8.81378L12.0556 51.2144V48.9444Z" fill="#00247D"/>
<path d="M16.7771 55.9445L20.554 58.5894C20.7385 58.3993 20.871 58.1651 20.939 57.9092L18.1332 55.9445H16.7771ZM12.056 55.9445H11.2234L7.44691 58.589C7.64952 58.7951 7.9093 58.9425 8.20058 59.0109L12.056 56.3113V55.9445ZM15.9449 52.0556H16.7775L20.554 49.4112C20.3479 49.2021 20.0867 49.0558 19.8007 48.9893L15.9449 51.6889V52.0556ZM11.2234 52.0556L7.44691 49.4112C7.26256 49.6014 7.1299 49.8355 7.06152 50.0914L9.86736 52.0556H11.2234Z" fill="#CF1B2B"/>
<path d="M21 55.1667H15.1667V59.0556H15.9444V56.786L19.1858 59.0556H19.4444C19.651 59.0556 19.8556 59.0144 20.046 58.9343C20.2365 58.8542 20.409 58.7369 20.5536 58.5893L16.7767 55.9444H18.1327L20.9386 57.9091C20.9747 57.7781 21 57.6423 21 57.5V57.4774L18.8102 55.9444H21V55.1667ZM7 55.1667V55.9444H9.18944L7 57.4771V57.5C7 57.9243 7.17072 58.3081 7.44644 58.5889L11.2229 55.9444H12.0556V56.3112L8.20011 59.0104C8.31444 59.0377 8.43267 59.0556 8.55556 59.0556H8.81378L12.0556 56.7856V59.0556H12.8333V55.1667H7ZM21 50.5C21.0002 50.0924 20.8398 49.7012 20.5536 49.4111L16.7771 52.0556H15.9444V51.6888L19.8003 48.9892C19.6838 48.9606 19.5644 48.9456 19.4444 48.9444H19.1866L15.9444 51.2144V48.9444H15.1667V52.8333H21V52.0556H18.8109L21 50.5229V50.5ZM12.0556 48.9444V51.2144L8.81378 48.9444H8.55556C8.34891 48.9444 8.14433 48.9856 7.95386 49.0657C7.76338 49.1459 7.59086 49.2633 7.44644 49.4111L11.2229 52.0556H9.86689L7.06106 50.0913C7.02247 50.2242 7.00193 50.3616 7 50.5V50.5229L9.18867 52.0556H7V52.8333H12.8333V48.9444H12.0556Z" fill="#EEEEEE"/>
<path d="M15.1667 52.8333V48.9444H12.8333V52.8333H7V55.1667H12.8333V59.0556H15.1667V55.1667H21V52.8333H15.1667Z" fill="#CF1B2B"/>
</g>
</g>
</g>
<defs>
<clipPath id="clip0_877_1720">
<rect width="320" height="322" fill="white"/>
</clipPath>
<clipPath id="clip1_877_1720">
<rect width="108" height="122" fill="white" transform="translate(-1 21)"/>
</clipPath>
<clipPath id="clip2_877_1720">
<rect width="14" height="14" fill="white" transform="translate(3.25781 88.2578)"/>
</clipPath>
<clipPath id="clip3_877_1720">
<rect width="14" height="14" fill="white" transform="translate(60.8857 52.8857)"/>
</clipPath>
<clipPath id="clip4_877_1720">
<rect width="14" height="14" fill="white" transform="translate(69.25 102.25)"/>
</clipPath>
<clipPath id="clip5_877_1720">
<rect width="14" height="14" fill="white" transform="translate(7 47)"/>
</clipPath>
</defs>
</svg>
